<?xml version="1.0" standalone="no"?>
<!DOCTYPE svg PUBLIC "-//W3C//DTD SVG 20010904//EN" "http://www.w3.org/TR/2001/REC-SVG-20010904/DTD/svg10.dtd">
<svg version="1.0"
    xmlns="http://www.w3.org/2000/svg"
    width="732.000000pt" height="682.000000pt" viewBox="0 0 732.000000 682.000000"
    preserveAspectRatio="xMidYMid meet">
    <g transform="translate(0.000000,682.000000) scale(0.100000,-0.100000)" fill="#000000" stroke="none">
        <path d="M3208 6488 c-33 -17 -37 -17 -73 -2 -31 13 -53 14 -104 8 -37 -5 -75
        -9 -86 -10 -11 -1 -28 -2 -37 -3 -10 0 -18 -7 -18 -15 0 -11 -14 -15 -52 -15
        -58 0 -179 -33 -218 -60 -24 -17 -58 -35 -195 -105 -33 -16 -85 -56 -115 -87
        -31 -31 -76 -66 -102 -77 -77 -34 -324 -294 -437 -460 -63 -94 -104 -178 -183
        -377 -123 -309 -203 -568 -258 -840 -79 -387 -106 -649 -97 -928 9 -263 40
        -414 201 -955 109 -366 127 -414 240 -641 144 -290 226 -422 391 -636 307
        -398 582 -681 877 -903 162 -122 212 -150 353 -199 l110 -38 195 0 c113 1 210
        5 230 12 19 6 62 16 95 23 83 17 235 91 272 133 17 19 35 36 41 38 6 2 49 39
        97 82 47 42 90 77 95 77 6 0 10 11 10 25 0 17 4 23 14 19 9 -4 16 4 21 24 4
        19 14 32 28 36 11 3 18 8 14 12 -3 4 13 22 37 41 24 19 47 45 50 58 4 14 20
        32 37 40 16 9 34 27 39 41 5 13 21 29 35 36 14 6 25 15 25 19 0 5 16 23 35 40
        19 18 37 41 41 53 4 12 10 23 13 26 9 7 51 97 51 110 0 5 10 18 22 30 12 11
        16 20 10 20 -18 0 -4 52 19 69 11 7 19 24 19 37 0 17 6 24 20 24 21 0 28 -24
        10 -35 -5 -3 -10 -15 -10 -26 0 -11 -7 -31 -16 -44 -15 -23 -15 -25 0 -31 16
        -6 26 3 97 82 24 27 24 53 2 61 -19 7 -83 68 -83 79 0 4 13 4 29 1 21 -4 34
        -1 46 13 10 11 28 20 40 20 30 0 61 35 47 53 -8 10 -4 20 16 42 29 32 62 94
        62 117 -1 24 -27 48 -60 54 l-33 7 7 -35 c7 -40 -9 -88 -31 -88 -17 0 -17 38
        1 73 12 22 13 27 1 27 -16 0 -75 -69 -75 -87 0 -16 -12 -17 -28 -1 -10 10 -15
        10 -22 -2 -23 -36 -31 -92 -20 -143 12 -59 2 -79 -30 -59 -29 18 -31 16 -24
        -27 5 -31 2 -43 -15 -60 -29 -29 -41 -26 -41 12 0 75 -27 97 -88 72 -35 -15
        -92 -69 -92 -88 0 -18 -37 -57 -55 -57 -8 0 -18 -8 -24 -18 -9 -16 -10 -16
        -17 1 -4 10 -1 29 6 42 28 53 -21 75 -66 30 -34 -34 -29 -68 11 -75 23 -4 31
        -12 39 -38 10 -37 -9 -112 -30 -112 -7 0 -19 -3 -28 -6 -12 -4 -16 0 -16 16 0
        16 4 20 15 16 9 -3 18 0 21 7 7 19 -14 69 -26 62 -6 -4 -8 -10 -5 -15 3 -5 1
        -11 -4 -14 -5 -3 -11 3 -14 14 -3 11 -14 20 -24 20 -18 0 -19 -5 -13 -45 4
        -24 3 -50 -1 -57 -7 -10 -9 -10 -10 2 -1 8 -2 22 -3 30 0 8 -13 16 -28 18 -16
        2 -28 9 -28 18 0 15 -35 20 -44 5 -16 -25 -83 25 -73 54 7 18 38 20 54 4 17
        -17 34 -1 27 27 -4 13 -3 53 0 88 l7 63 55 17 c63 20 115 61 138 110 31 66 14
        136 -40 156 -29 12 -31 26 -4 35 23 7 80 -14 80 -31 0 -15 57 -64 74 -64 16 0
        56 50 56 70 0 6 -13 16 -29 21 -38 14 -46 36 -18 50 61 32 87 90 52 119 -17
        14 -85 -7 -85 -27 0 -8 -12 -13 -32 -13 -20 0 -42 -9 -57 -24 -15 -13 -38 -26
        -53 -30 -24 -5 -28 -3 -28 15 0 12 8 23 20 26 22 6 60 61 60 86 0 20 -62 87
        -82 88 -7 1 -23 0 -35 -1 -28 -2 -28 1 -2 31 17 20 18 25 6 27 -9 2 -25 -6
        -37 -18 -12 -12 -28 -19 -36 -16 -8 3 -20 9 -28 12 -7 3 -16 -3 -20 -13 -3
        -10 -9 -23 -12 -30 -3 -8 9 -13 38 -15 39 -3 43 -6 48 -33 6 -30 13 -33 58
        -19 19 5 22 3 22 -20 0 -27 -17 -65 -35 -78 -5 -4 -21 -4 -35 -2 -19 4 -31 -1
        -51 -23 -14 -16 -23 -35 -21 -42 3 -8 -1 -12 -9 -9 -14 5 -88 -86 -89 -108 0
        -17 -38 -47 -50 -39 -5 3 -8 10 -5 15 10 16 -7 39 -36 49 -22 7 -35 22 -46 51
        -9 22 -19 40 -23 40 -12 0 -3 65 13 95 9 17 17 35 17 42 0 7 6 10 14 7 20 -8
        30 15 31 68 0 51 -14 62 -37 30 -7 -10 -21 -23 -30 -28 -9 -5 -29 -28 -45 -50
        -31 -46 -89 -114 -98 -114 -3 0 -5 18 -5 39 0 33 5 42 26 53 31 15 35 32 11
        36 -10 2 -17 -3 -17 -12 0 -12 -6 -11 -34 7 -33 22 -37 31 -23 55 6 9 13 9 28
        2 16 -9 25 -5 54 23 38 37 42 52 21 76 -21 24 -7 95 19 99 35 7 53 32 60 84 9
        64 -2 75 -45 43 -30 -22 -36 -23 -48 -11 -8 8 -15 28 -16 45 -1 17 -6 31 -12
        31 -5 0 -19 6 -29 14 -18 13 -18 15 -2 40 10 14 24 26 31 26 26 0 37 25 25 59
        -6 17 -16 31 -22 31 -6 0 -21 10 -34 22 l-23 21 0 -26 c0 -16 -5 -27 -14 -27
        -8 0 -17 -7 -20 -16 -4 -11 -12 -14 -24 -9 -9 4 -44 9 -77 12 -54 4 -64 8 -98
        43 -34 37 -37 43 -31 81 5 27 3 43 -5 48 -7 4 -13 30 -15 57 -2 27 -6 56 -7
        64 -3 10 16 25 54 43 56 28 71 49 42 61 -21 8 -19 33 5 63 11 14 20 32 20 40
        0 8 6 27 14 41 8 15 20 42 26 60 7 17 16 32 20 32 4 0 21 -16 39 -36 42 -45
        78 -45 72 1 -4 34 -20 49 -38 34 -15 -13 -33 -3 -33 17 0 8 -11 19 -25 24 -23
        9 -25 14 -25 81 l0 71 -31 -7 -32 -7 5 70 c4 55 1 79 -13 109 -10 21 -18 46
        -19 56 0 10 -7 20 -15 23 -18 7 -21 48 -2 41 6 -2 19 -1 28 4 15 8 15 13 3 51
        -8 24 -18 50 -21 58 -3 8 -7 19 -7 25 -1 5 -16 12 -33 16 -61 12 -116 60 -107
        91 3 10 -2 28 -10 40 -9 12 -16 29 -16 38 0 13 1 13 10 0 6 -10 10 -11 10 -2
        0 6 6 12 14 12 18 0 30 48 17 64 -13 16 0 61 18 61 8 0 16 6 19 14 3 10 -1 12
        -16 9 -18 -5 -23 0 -28 27 -9 51 -2 60 39 57 34 -3 37 -2 39 25 0 15 1 35 2
        43 2 26 41 23 56 -5 16 -29 23 -31 40 -10 10 13 9 19 -6 36 -10 11 -25 18 -33
        17 -9 -2 -21 6 -26 17 -9 17 -19 20 -63 17 -43 -2 -52 1 -52 15 0 9 -9 27 -21
        39 -19 20 -20 26 -9 61 23 70 31 87 38 76 4 -5 18 -16 31 -23 l25 -13 -27 -19
        c-42 -30 -36 -51 12 -43 30 5 40 3 44 -9 6 -16 52 -22 60 -8 3 4 -10 22 -29
        41 -18 19 -30 39 -27 45 11 17 12 99 1 126 -12 32 -51 61 -86 63 -23 2 -27 -2
        -27 -23 0 -18 6 -25 21 -26 46 -2 49 -19 14 -72 -8 -12 -20 -22 -26 -22 -7 0
        -15 -16 -18 -35 -4 -20 -11 -33 -17 -30 -5 4 -7 10 -4 15 3 5 -4 30 -15 56
        -12 25 -19 52 -16 60 3 8 -3 20 -14 26 -20 13 -27 38 -11 38 5 0 8 19 6 43 -2
        23 -4 48 -4 55 -1 6 -12 12 -26 12 -16 0 -25 6 -25 15 0 8 5 15 11 15 9 0 10
        23 6 80 -7 87 0 100 39 79 31 -16 55 1 34 26 -15 18 -47 20 -53 3 -3 -8 -12
        -3 -26 15 -13 15 -30 27 -40 27 -26 0 -30 9 -19 41 9 28 28 40 28 19 0 -16 50
        -11 57 6 3 9 15 14 32 12 17 -2 25 2 23 10 -1 8 5 12 15 10 11 -2 19 -14 21
        -31 3 -22 8 -27 31 -27 15 0 38 9 51 20 25 21 65 27 75 10 4 -6 21 -8 41 -4
        24 4 34 2 34 -6 0 -7 7 -10 15 -7 17 7 133 -10 157 -24 10 -5 26 -9 37 -9 10
        0 24 -7 31 -15 7 -8 22 -15 35 -15 12 0 25 -3 29 -7 4 -4 19 -7 34 -8 17 0 30
        -8 38 -23 6 -12 21 -33 33 -46 29 -30 27 -45 -9 -57 -16 -6 -30 -14 -30 -19 0
        -15 30 -32 49 -27 15 4 22 -2 30 -24 7 -20 15 -27 25 -23 9 3 16 10 16 15 0 5
        9 18 21 30 15 15 18 24 10 33 -16 19 7 35 44 29 19 -3 35 -13 40 -26 14 -32
        41 -33 49 -2 6 23 10 25 46 19 33 -5 44 -2 70 20 18 14 44 29 58 33 15 3 37
        13 50 21 20 13 26 10 23 -10 -2 -13 16 -9 28 6 7 8 13 24 14 35 1 16 10 23 37
        28 19 3 40 13 46 21 19 27 36 4 17 -24 -15 -24 -15 -26 13 -53 16 -15 37 -30
        47 -34 9 -4 16 -10 15 -14 -1 -4 4 -25 12 -45 9 -25 20 -38 33 -38 11 0 22
        -11 28 -29 6 -16 16 -32 23 -34 8 -3 12 -15 9 -30 -3 -17 2 -31 17 -45 25 -23
        21 -56 -5 -46 -21 8 -21 -59 0 -76 17 -14 20 -46 5 -55 -16 -10 -12 -28 5 -21
        9 3 15 0 15 -9 0 -10 11 -15 32 -15 21 0 41 -9 60 -27 22 -21 28 -23 28 -10 0
        10 8 17 19 17 16 0 21 -9 27 -45 5 -35 10 -45 26 -45 15 0 19 7 18 38 0 20 2
        51 6 69 3 17 2 39 -4 48 -6 12 -5 26 4 43 11 22 11 29 -1 42 -8 9 -15 35 -15
        58 0 29 -6 47 -21 61 -12 11 -18 24 -14 30 3 6 -5 25 -19 42 -14 17 -26 36
        -26 43 0 7 -9 21 -20 31 -25 23 -26 45 -2 45 26 0 42 -20 42 -52 0 -16 7 -31
        15 -34 8 -4 15 -15 15 -25 0 -25 17 -24 31 2 16 30 2 85 -26 108 -14 10 -25
        25 -25 33 0 30 -22 78 -36 78 -8 0 -20 -11 -26 -25 -21 -48 -48 -22 -48 48 0
        24 -9 32 -33 28 -4 -1 -12 10 -17 24 -5 14 -15 24 -22 23 -7 -2 -13 4 -14 12
        0 8 -4 25 -8 37 -4 14 -1 31 9 47 10 15 15 39 13 60 -3 38 15 56 20 20 2 -12
        14 -26 27 -32 19 -9 27 -24 37 -72 6 -33 17 -60 24 -60 18 0 27 49 12 68 -10
        11 -10 16 -1 19 48 16 108 123 69 123 -26 0 -18 27 10 33 21 4 28 -1 42 -29
        15 -32 15 -36 -7 -74 l-22 -40 27 -10 c35 -14 63 -4 74 25 11 28 -4 87 -25
        105 -8 7 -15 20 -15 29 -1 9 -19 29 -41 44 -32 22 -40 33 -35 50 3 12 -1 29
        -11 39 -15 17 -15 18 6 18 13 0 25 9 30 23 5 12 18 31 30 41 25 23 26 48 6
        106 -8 24 -14 44 -13 45 2 1 13 8 26 14 30 16 28 39 -10 108 -71 130 -138 199
        -312 316 -77 53 -319 177 -344 177 -9 0 -23 6 -31 14 -9 7 -38 21 -66 32 -27
        10 -59 23 -70 30 -44 26 -232 73 -300 74 -108 2 -113 1 -135 -22 -20 -21 -21
        -22 -49 -5 -25 15 -30 15 -41 2 -7 -8 -20 -15 -30 -15 -10 0 -23 -7 -30 -15
        -7 -8 -20 -15 -30 -15 -19 0 -34 -25 -24 -41 3 -5 22 -9 43 -9 33 0 39 -4 54
        -34 17 -36 14 -136 -4 -136 -14 0 -10 -27 6 -40 20 -17 19 -63 -2 -89 -10 -12
        -35 -24 -58 -28 -22 -3 -48 -14 -58 -24 -18 -17 -18 -18 2 -28 16 -9 28 -7 58
        9 21 11 38 25 38 30 0 6 3 9 6 8 13 -5 52 37 66 70 15 35 20 37 45 19 12 -10
        15 -24 12 -57 -2 -24 -9 -47 -15 -51 -6 -3 -11 -19 -11 -35 -1 -63 -7 -76 -33
        -70 -16 4 -44 -4 -85 -25 -60 -30 -73 -52 -48 -77 9 -9 9 -15 0 -24 -9 -9 -15
        -9 -24 0 -17 17 -24 15 -42 -13 -22 -34 -12 -49 19 -29 26 17 45 12 45 -12 0
        -8 6 -14 14 -14 7 0 16 -9 19 -20 3 -11 17 -24 31 -30 16 -6 26 -17 26 -29 0
        -11 5 -23 10 -26 6 -4 10 -23 9 -43 -1 -20 1 -45 5 -54 5 -11 4 -18 -3 -18 -6
        0 -11 9 -11 20 0 12 -9 22 -23 25 -19 5 -23 11 -19 36 2 16 0 29 -6 29 -14 0
        -27 -38 -23 -67 1 -13 -2 -23 -8 -23 -22 0 -10 -31 15 -42 26 -12 26 -14 20
        -77 -4 -36 -12 -68 -18 -72 -6 -4 -7 -12 -3 -19 6 -9 9 -9 16 1 7 12 12 12 29
        1 12 -7 30 -10 41 -7 15 5 19 2 19 -15 0 -12 5 -18 10 -15 16 10 12 -5 -11
        -36 -24 -34 -74 -40 -94 -12 -11 15 -16 16 -39 4 -18 -10 -29 -11 -38 -3 -7 6
        -46 13 -86 16 -42 3 -84 11 -98 21 -19 12 -29 13 -45 5 -11 -7 -27 -9 -35 -6
        -17 6 -19 46 -3 46 8 0 8 4 0 14 -9 11 -9 20 -2 35 14 24 14 31 1 31 -5 0 -15
        -18 -21 -40 -7 -22 -16 -40 -21 -40 -4 0 -8 -7 -8 -15 0 -9 -9 -15 -22 -14
        -13 0 -35 -3 -49 -6 -24 -6 -26 -4 -25 24 1 32 33 51 43 25 3 -8 8 -14 12 -14
        5 0 6 22 2 98 -1 13 -7 22 -17 22 -10 0 -13 -6 -9 -19 4 -13 -2 -23 -20 -35
        -14 -9 -25 -23 -25 -31 0 -22 -40 -41 -51 -24 -13 20 -11 27 10 48 20 20 20
        20 -2 23 -12 2 -23 10 -25 19 -3 16 1 18 56 23 39 3 52 14 32 26 -8 5 -11 12
        -7 16 4 4 16 -3 27 -16 15 -18 23 -21 32 -12 8 8 20 4 45 -18 32 -29 35 -29
        58 -14 14 9 25 20 25 25 0 8 -33 5 -49 -6 -15 -9 -25 16 -22 52 2 29 -1 33
        -21 33 -22 1 -22 1 5 16 l29 16 -21 22 c-13 13 -19 30 -16 39 4 9 -2 24 -14
        36 -25 25 -27 54 -5 75 8 9 13 20 10 25 -6 10 22 37 30 29 3 -3 6 -15 7 -27 2
        -27 10 -27 22 2 6 12 18 22 27 22 22 0 42 20 34 34 -4 6 -18 11 -30 11 -16 0
        -26 7 -30 23 -11 41 -7 47 28 47 39 0 62 20 44 38 -7 7 -16 12 -21 12 -4 0
        -23 11 -42 26 -36 27 -51 20 -41 -21 6 -23 4 -24 -34 -22 -22 1 -40 5 -40 10
        0 4 0 10 0 15 0 4 6 7 13 7 7 0 13 16 15 38 3 34 -1 43 -36 74 -38 34 -39 35
        -28 76 13 54 13 53 34 34 16 -15 19 -15 30 3 10 17 8 20 -22 26 -36 6 -49 23
        -39 50 4 10 13 14 29 10 19 -5 23 -1 29 25 4 16 12 28 18 26 7 -2 20 2 29 10
        12 11 28 13 53 9 19 -4 35 -10 35 -13 0 -3 -19 -23 -42 -44 -24 -21 -43 -42
        -43 -46 -2 -19 -19 -59 -29 -66 -7 -5 -5 -11 8 -19 11 -6 29 -21 40 -33 50
        -51 159 -105 171 -84 4 5 17 9 30 9 14 0 43 12 64 28 31 20 40 34 41 56 0 18
        12 40 35 63 19 19 35 44 35 54 0 10 -16 36 -35 58 -46 51 -108 68 -161 46 -20
        -8 -49 -15 -65 -15 -26 0 -29 3 -29 34 0 25 5 36 19 41 27 8 41 28 32 44 -7
        11 -13 9 -30 -8 -27 -27 -41 -27 -41 0 0 35 -19 59 -48 59 -15 0 -33 4 -40 9
        -7 4 -31 3 -54 -3 -33 -9 -42 -8 -51 5 -16 21 -76 19 -119 -3z m455 -223 c-3
        -42 -26 -115 -35 -115 -27 0 -37 110 -12 135 25 25 49 15 47 -20z m264 -63 c4
        -44 -18 -75 -39 -54 -9 9 -7 15 7 25 10 8 15 19 11 26 -8 12 3 56 11 47 3 -3
        8 -23 10 -44z m-681 -106 c8 -8 14 -19 14 -25 0 -10 -4 -11 -27 -11 -5 0 -11
        12 -15 25 -7 28 6 33 28 11z m1249 -41 c-3 -14 -7 -36 -10 -50 -3 -14 -12 -25
        -21 -25 -9 0 -14 6 -11 13 2 6 10 29 18 50 15 42 32 51 24 12z m-1185 -75 c0
        -5 -4 -10 -10 -10 -5 0 -10 5 -10 10 0 6 5 10 10 10 6 0 10 -4 10 -10z m34
        -257 c9 -22 -10 -41 -25 -26 -13 13 -5 43 10 43 5 0 12 -8 15 -17z m-88 -27
        c6 -37 -1 -60 -17 -51 -12 8 -12 85 1 85 5 0 12 -15 16 -34z m39 -167 c-7 -22
        -33 -25 -41 -5 -3 8 2 26 12 41 l18 27 8 -22 c5 -13 6 -31 3 -41z m35 37 c0
        -3 -4 -8 -10 -11 -5 -3 -10 -1 -10 4 0 6 5 11 10 11 6 0 10 -2 10 -4z m-144
        -93 c-7 -17 -8 -17 -17 0 -12 21 -2 44 13 29 6 -6 8 -19 4 -29z m71 -21 c9 -6
        7 -11 -7 -20 -17 -11 -20 -10 -20 8 0 21 7 25 27 12z m633 -42 c0 -5 -2 -10
        -4 -10 -3 0 -8 5 -11 10 -3 6 -1 10 4 10 6 0 11 -4 11 -10z m78 -72 c1 -8 -8
        -19 -22 -26 -37 -16 -49 4 -20 33 19 18 38 15 42 -7z m-518 -210 c0 -40 -14
        -52 -46 -41 -39 13 -36 33 6 48 19 7 36 13 38 14 1 0 2 -9 2 -21z m1480 -48
        c0 -5 -2 -10 -4 -10 -3 0 -8 5 -11 10 -3 6 -1 10 4 10 6 0 11 -4 11 -10z m28
        -96 c7 -2 11 -8 7 -14 -3 -5 1 -20 8 -32 24 -37 29 -74 12 -88 -12 -10 -16 -8
        -24 13 -5 13 -18 27 -29 29 -15 4 -62 82 -62 104 0 3 68 -6 88 -12z m-338 -19
        c-7 -8 -16 -12 -21 -9 -13 8 -1 24 18 24 13 0 13 -3 3 -15z m-1375 -24 c3 -5
        1 -12 -5 -16 -5 -3 -10 1 -10 9 0 18 6 21 15 7z m8 -66 c-7 -21 -13 -19 -13 6
        0 11 4 18 10 14 5 -3 7 -12 3 -20z m1757 -144 c0 -23 -16 -36 -25 -21 -9 14 1
        40 15 40 5 0 10 -9 10 -19z m42 -56 c-2 -19 -8 -35 -13 -35 -10 0 -12 31 -3
        54 11 28 20 17 16 -19z m-1942 -109 c0 -6 -9 -42 -19 -79 -13 -51 -20 -65 -28
        -55 -17 21 -25 56 -13 63 5 3 10 23 10 43 0 32 3 37 25 38 14 1 25 -3 25 -10z
        m2028 -52 c25 -39 19 -59 -14 -52 -12 2 -19 12 -19 25 0 13 -6 28 -13 35 -17
        17 -15 28 6 28 9 0 28 -16 40 -36z m-1641 -434 c-1 -11 -7 -20 -14 -20 -14 0
        -18 22 -6 33 12 13 22 7 20 -13z m-15 -135 c-2 -15 -9 -22 -18 -18 -15 6 -17
        13 -8 37 9 24 32 8 26 -19z m-1198 -507 c20 -71 20 -70 -6 -66 -27 4 -52 50
        -51 95 2 76 31 62 57 -29z m1356 -48 c0 -22 -16 -35 -25 -20 -9 14 4 52 16 45
        5 -4 9 -15 9 -25z m456 -1837 c-10 -26 -18 -8 -9 23 5 21 8 24 11 11 2 -10 1
        -25 -2 -34z m-20 -95 c-2 -14 -12 -25 -27 -28 -13 -3 -26 -15 -28 -25 -5 -29
        -51 -67 -73 -62 -11 3 -22 -2 -28 -14 -14 -26 -29 -24 -40 5 -10 27 -38 46
        -68 46 -13 0 -24 11 -31 31 -17 49 -14 53 21 24 27 -23 39 -26 78 -23 25 3 70
        16 100 30 95 44 101 45 96 16z m43 -94 l-12 -29 -7 25 c-7 27 8 56 22 42 5 -5
        4 -21 -3 -38z m5 -70 c9 -22 8 -24 -9 -24 -8 0 -15 9 -15 20 0 24 15 27 24 4z
        m-64 -59 c0 -8 -4 -15 -10 -15 -5 0 -10 7 -10 15 0 8 5 15 10 15 6 0 10 -7 10
        -15z m93 -9 c4 -9 -3 -16 -16 -20 -26 -6 -31 -2 -24 19 8 19 33 20 40 1z m67
        -16 c0 -21 -33 -29 -45 -10 -9 15 4 30 26 30 12 0 19 -7 19 -20z m470 -151 c0
        -5 -11 -9 -25 -9 -24 0 -32 10 -19 22 8 8 44 -3 44 -13z m-300 -23 c0 -22 -19
        -30 -35 -16 -22 18 -18 30 10 30 15 0 25 -6 25 -14z m-492 -155 c11 -7 11 -9
        -2 -14 -16 -6 -66 7 -66 18 0 8 54 5 68 -4z"/>
        <path d="M3690 6478 c1 -17 25 -48 38 -48 19 0 24 34 6 47 -23 17 -44 17 -44
        1z"/>
        <path d="M3775 6480 c-8 -13 13 -40 31 -40 8 0 14 10 14 25 0 18 -5 25 -19 25
        -11 0 -23 -5 -26 -10z"/>
        <path d="M3470 5654 c0 -14 22 -44 33 -44 9 0 16 30 11 45 -8 20 -44 19 -44
        -1z"/>
        <path d="M5321 5521 c12 -17 24 -31 25 -31 1 0 -1 12 -5 28 -4 15 -15 29 -25
        30 -16 3 -15 0 5 -27z"/>
        <path d="M3480 5498 c0 -16 5 -28 10 -28 13 0 13 20 0 40 -8 12 -10 9 -10 -12z"/>
        <path d="M5376 5400 c-18 -18 -18 -21 -2 -44 9 -14 16 -35 16 -46 0 -21 15
        -52 38 -81 8 -10 14 -50 16 -98 3 -94 18 -121 55 -102 19 11 21 20 21 101 0
        85 -1 89 -27 109 -26 18 -27 21 -11 33 11 9 18 32 20 73 l3 60 -35 1 c-19 1
        -44 4 -55 8 -13 3 -27 -2 -39 -14z"/>
        <path d="M3558 5390 c-11 -12 -13 -22 -7 -26 12 -7 15 -5 23 24 9 26 7 26 -16
        2z"/>
        <path d="M3580 5340 c0 -7 9 -14 19 -17 11 -3 22 -14 25 -26 4 -16 8 -19 17
        -10 17 17 6 48 -16 48 -11 0 -26 4 -32 8 -8 5 -13 4 -13 -3z"/>
        <path d="M3500 5294 c0 -9 7 -14 17 -12 25 5 28 28 4 28 -12 0 -21 -6 -21 -16z"/>
        <path d="M5280 5132 c-44 -15 -51 -83 -20 -183 27 -89 44 -111 83 -107 28 3
        34 9 45 45 12 37 11 50 -7 113 -29 102 -62 146 -101 132z"/>
        <path d="M5093 5075 c-8 -22 6 -33 17 -15 13 20 12 30 0 30 -6 0 -13 -7 -17
        -15z"/>
        <path d="M4023 4925 c-8 -22 6 -33 17 -15 13 20 12 30 0 30 -6 0 -13 -7 -17
        -15z"/>
        <path d="M3508 4909 c-15 -8 -16 -13 -6 -29 11 -17 14 -18 30 -4 9 9 22 13 27
        9 6 -3 11 -2 11 4 0 6 -9 15 -19 21 -23 12 -22 12 -43 -1z"/>
        <path d="M4430 4804 c0 -8 5 -12 10 -9 6 4 8 11 5 16 -9 14 -15 11 -15 -7z"/>
        <path d="M3665 4777 c-8 -19 32 -67 56 -67 9 0 22 6 28 14 10 12 8 16 -11 21
        -13 4 -33 16 -45 28 -19 17 -23 18 -28 4z"/>
        <path d="M4600 4758 c-13 -7 -35 -29 -48 -48 -30 -44 -25 -95 15 -152 38 -56
        77 -78 139 -78 43 0 54 4 80 31 75 78 -3 241 -123 255 -21 3 -49 -1 -63 -8z"/>
        <path d="M5464 4698 c-23 -37 -2 -190 32 -245 19 -30 60 -31 69 -2 14 42 -19
        210 -48 247 -12 16 -44 16 -53 0z"/>
        <path d="M3680 4615 c-23 -27 -6 -54 43 -69 26 -8 21 -45 -7 -52 -14 -3 -29
        -3 -35 0 -5 4 -13 -3 -16 -15 -8 -23 7 -39 38 -39 13 0 17 -8 17 -33 0 -28 7
        -38 45 -65 l45 -32 12 26 c10 20 8 41 -11 112 -13 48 -26 98 -28 112 -3 15
        -19 35 -39 48 -40 26 -48 27 -64 7z"/>
        <path d="M3995 4618 c-154 -56 -200 -193 -94 -283 24 -19 28 -29 23 -50 -3
        -14 -2 -25 3 -25 4 0 9 -19 9 -41 1 -37 15 -58 37 -59 4 0 7 15 7 34 0 25 5
        35 20 39 12 3 20 14 20 25 0 27 26 52 52 52 12 0 29 7 38 15 10 9 30 18 46 21
        16 3 32 8 36 12 7 7 -7 69 -32 142 -20 57 -25 64 -57 80 -17 8 -38 23 -47 33
        -20 19 -20 19 -61 5z"/>
        <path d="M5591 4564 c0 -11 3 -14 6 -6 3 7 2 16 -1 19 -3 4 -6 -2 -5 -13z"/>
        <path d="M5338 4413 c-52 -60 -3 -273 64 -281 36 -4 56 28 62 101 7 71 -12
        125 -60 167 -40 35 -46 36 -66 13z"/>
        <path d="M5215 4347 c-4 -10 -3 -23 3 -29 14 -14 21 3 12 27 -7 19 -8 19 -15
        2z"/>
        <path d="M4196 4328 c-23 -33 -20 -45 17 -61 33 -15 57 -16 120 -3 32 7 37 12
        37 37 0 34 -10 37 -28 9 -12 -20 -13 -20 -68 10 -30 16 -57 30 -59 30 -2 0
        -11 -10 -19 -22z"/>
        <path d="M5226 4291 c-8 -13 11 -61 24 -61 15 0 8 62 -7 67 -6 2 -14 0 -17 -6z"/>
        <path d="M5038 4273 c0 -5 -2 -12 -3 -18 -2 -5 -3 -27 -4 -47 -1 -27 -6 -38
        -21 -43 -11 -3 -20 -11 -20 -16 0 -6 5 -7 10 -4 6 3 10 2 10 -4 0 -5 -6 -12
        -12 -14 -9 -4 -3 -14 16 -32 37 -34 81 -32 81 5 0 13 10 35 23 49 12 13 22 27
        22 31 0 16 -72 100 -85 100 -8 0 -16 -3 -17 -7z"/>
        <path d="M3850 4241 c0 -12 6 -21 16 -21 9 0 14 7 12 17 -5 25 -28 28 -28 4z"/>
        <path d="M4100 4190 c0 -5 7 -10 16 -10 8 0 12 5 9 10 -3 6 -10 10 -16 10 -5
        0 -9 -4 -9 -10z"/>
        <path d="M3626 4161 c-4 -7 -5 -15 -2 -18 9 -9 19 4 14 18 -4 11 -6 11 -12 0z"/>
        <path d="M5683 4158 c-15 -17 -19 -57 -9 -86 4 -13 2 -44 -4 -70 -8 -32 -9
        -62 -3 -92 10 -51 31 -62 62 -31 10 10 30 21 43 23 23 3 23 5 20 103 -1 55 -6
        114 -10 130 -7 26 -13 30 -49 33 -24 2 -44 -2 -50 -10z m85 -127 c3 -27 0 -32
        -15 -29 -19 3 -28 30 -19 54 10 26 31 10 34 -25z"/>
        <path d="M4926 4123 c-12 -12 -5 -23 14 -23 11 0 20 4 20 9 0 11 -26 22 -34
        14z"/>
        <path d="M4373 4028 c-18 -21 -25 -81 -14 -111 l11 -27 -56 6 c-52 6 -58 5
        -80 -20 -32 -34 -54 -34 -54 0 0 22 -2 25 -15 14 -8 -7 -15 -19 -15 -26 0 -8
        -10 -14 -24 -14 -20 0 -25 6 -31 40 -7 42 -13 48 -33 28 -16 -16 -15 -60 3
        -84 17 -22 19 -53 6 -86 -5 -13 -13 -32 -17 -43 -4 -11 -8 -38 -8 -60 -1 -33
        -6 -42 -28 -53 -28 -13 -36 -36 -18 -47 16 -10 12 -35 -5 -35 -9 0 -20 11 -27
        25 -6 13 -15 22 -19 19 -16 -10 -7 -88 13 -110 10 -11 17 -32 16 -45 -3 -20 2
        -24 27 -27 25 -2 33 -10 48 -46 14 -34 22 -43 37 -39 26 7 61 -50 53 -87 -6
        -32 9 -45 49 -42 16 1 49 -8 76 -21 50 -26 180 -42 217 -27 22 8 45 3 45 -11
        0 -5 -13 -9 -28 -9 -27 0 -72 -24 -62 -33 9 -9 131 13 163 29 42 22 68 45 61
        55 -3 5 -1 9 5 9 5 0 11 -5 13 -12 6 -18 57 20 64 48 3 13 12 24 20 24 7 0 31
        17 54 38 22 22 42 37 44 35 2 -3 7 4 10 14 3 10 28 36 56 58 31 25 50 47 50
        61 0 11 7 42 16 67 23 67 7 168 -42 273 -18 38 -39 61 -90 98 -42 30 -77 48
        -96 48 -21 1 -32 7 -36 20 -2 10 -16 20 -31 23 -14 3 -47 12 -72 20 -60 19
        -103 19 -119 0 -22 -27 -46 -17 -66 28 -20 44 -51 59 -71 35z"/>
        <path d="M4868 3988 c-50 -17 -31 -58 25 -58 36 0 51 14 38 38 -14 26 -30 31
        -63 20z"/>
        <path d="M4120 3980 c0 -5 5 -10 10 -10 6 0 10 5 10 10 0 6 -4 10 -10 10 -5 0
        -10 -4 -10 -10z"/>
        <path d="M4915 3900 c3 -5 13 -10 21 -10 8 0 14 5 14 10 0 6 -9 10 -21 10 -11
        0 -17 -4 -14 -10z"/>
        <path d="M5000 3843 c0 -14 49 -32 56 -21 8 12 5 14 -28 22 -16 3 -28 3 -28
        -1z"/>
        <path d="M5122 3818 c-18 -18 -14 -38 8 -38 21 0 26 16 12 37 -6 10 -11 10
        -20 1z"/>
        <path d="M5025 3689 c-8 -25 -1 -34 20 -26 19 8 20 47 1 47 -8 0 -18 -9 -21
        -21z"/>
        <path d="M5538 3660 c-8 -19 -23 -41 -32 -49 -10 -8 -24 -27 -32 -42 -15 -30
        -19 -109 -5 -109 10 0 61 114 61 136 0 8 7 29 16 45 8 17 13 36 11 42 -2 7
        -11 -4 -19 -23z"/>
        <path d="M5611 3312 c-14 -25 -14 -42 -1 -42 16 0 33 41 22 52 -7 7 -14 3 -21
        -10z"/>
        <path d="M4086 3232 c-3 -6 -1 -14 5 -17 15 -10 25 3 12 16 -7 7 -13 7 -17 1z"/>
        <path d="M5318 3128 c-6 -13 -12 -49 -12 -80 -1 -40 -5 -58 -13 -58 -14 0 -18
        -26 -5 -33 4 -3 16 -1 27 3 16 5 19 15 16 56 -1 27 5 65 13 85 14 34 13 49 -5
        49 -5 0 -14 -10 -21 -22z"/>
        <path d="M4200 3104 c0 -8 5 -12 10 -9 6 3 10 10 10 16 0 5 -4 9 -10 9 -5 0
        -10 -7 -10 -16z"/>
        <path d="M5207 2973 c-7 -35 -2 -43 27 -43 32 0 36 7 19 41 -18 37 -39 37 -46
        2z"/>
        <path d="M5462 2966 c-28 -20 -30 -25 -18 -36 19 -15 34 -6 47 27 13 35 8 37
        -29 9z"/>
        <path d="M3750 2895 c5 -22 10 -44 10 -48 0 -5 5 -5 10 -2 16 10 12 41 -9 66
        l-20 24 9 -40z"/>
        <path d="M5448 2864 c-16 -8 -29 -26 -33 -43 -3 -16 -13 -35 -22 -43 -34 -28
        -53 -98 -56 -202 -2 -83 1 -107 16 -129 25 -38 41 -35 34 7 -4 23 -1 39 8 46
        28 23 65 138 65 203 0 35 4 67 9 73 12 13 23 92 13 97 -4 3 -19 -1 -34 -9z"/>
        <path d="M4065 2850 c-4 -6 -15 -8 -26 -5 -15 5 -19 1 -19 -17 0 -13 5 -29 12
        -36 8 -8 6 -16 -10 -29 -28 -23 -20 -63 11 -60 15 1 22 -5 27 -23 5 -20 12
        -25 35 -25 29 0 30 2 27 40 -5 79 -12 103 -30 101 -13 -1 -16 6 -14 32 2 33
        -2 40 -13 22z"/>
        <path d="M5126 2761 c-4 -7 -5 -15 -2 -18 9 -9 19 4 14 18 -4 11 -6 11 -12 0z"/>
        <path d="M5547 2733 c-4 -3 -7 -11 -7 -17 0 -6 5 -5 12 2 6 6 9 14 7 17 -3 3
        -9 2 -12 -2z"/>
        <path d="M3942 2718 c6 -18 28 -21 28 -4 0 9 -7 16 -16 16 -9 0 -14 -5 -12
        -12z"/>
        <path d="M5155 2686 c-20 -19 -43 -32 -50 -30 -11 4 -14 -6 -13 -46 0 -42 -4
        -55 -25 -74 -31 -29 -46 -83 -44 -158 0 -31 -4 -62 -10 -70 -19 -24 -23 -75
        -8 -88 21 -18 18 -29 -10 -40 -33 -13 -32 -38 5 -88 17 -23 32 -52 34 -65 3
        -19 12 -23 71 -32 66 -10 69 -11 77 -42 10 -38 48 -48 48 -12 0 13 11 25 34
        34 32 13 56 49 42 62 -3 3 4 13 15 22 17 14 20 31 24 145 3 98 1 135 -10 156
        -16 32 -36 42 -56 29 -25 -16 -27 -10 -22 70 5 68 3 85 -17 125 -12 25 -28 46
        -36 46 -19 0 -18 29 2 51 15 17 12 39 -6 39 -5 0 -25 -15 -45 -34z m-118 -578
        c-3 -7 -5 -2 -5 12 0 14 2 19 5 13 2 -7 2 -19 0 -25z m103 12 c11 -7 4 -10
        -27 -10 -23 0 -45 5 -48 10 -8 13 55 13 75 0z m115 -80 c-3 -5 -10 -10 -16
        -10 -5 0 -9 5 -9 10 0 6 7 10 16 10 8 0 12 -4 9 -10z"/>
        <path d="M3946 2645 c-3 -8 -1 -15 4 -15 6 0 10 7 10 15 0 8 -2 15 -4 15 -2 0
        -6 -7 -10 -15z"/>
        <path d="M4182 2603 c2 -20 9 -29 26 -31 25 -4 30 13 7 22 -8 3 -15 12 -15 21
        0 8 -5 15 -11 15 -6 0 -9 -12 -7 -27z"/>
        <path d="M4062 2581 c-10 -6 -7 -12 11 -24 23 -15 26 -15 31 0 4 9 1 20 -6 25
        -16 10 -20 10 -36 -1z"/>
        <path d="M5455 2530 c-14 -27 -25 -52 -25 -55 0 -9 29 -6 35 4 7 12 24 101 19
        101 -2 0 -15 -22 -29 -50z"/>
        <path d="M4098 2466 c-3 -15 0 -27 8 -30 21 -8 17 -33 -6 -39 -16 -4 -20 -14
        -20 -46 0 -43 12 -53 28 -24 9 15 11 14 21 -5 6 -11 20 -24 31 -27 11 -3 20
        -14 21 -23 0 -10 3 -12 5 -5 3 7 1 20 -4 29 -6 10 -5 34 0 61 7 31 7 48 -1 56
        -6 6 -11 24 -11 40 0 23 -3 27 -19 22 -11 -3 -22 -1 -26 5 -11 17 -22 11 -27
        -14z"/>
        <path d="M5416 2136 c8 -20 54 -39 54 -23 0 18 -21 37 -42 37 -11 0 -15 -5
        -12 -14z"/>
        <path d="M4456 2061 c-4 -7 -5 -15 -2 -18 9 -9 19 4 14 18 -4 11 -6 11 -12 0z"/>
        <path d="M5037 1967 c-4 -10 -7 -29 -7 -42 0 -13 -4 -27 -10 -30 -14 -9 -12
        -25 3 -25 31 1 38 16 30 66 -6 35 -11 44 -16 31z"/>
        <path d="M4356 1831 c-4 -7 -5 -15 -2 -18 9 -9 19 4 14 18 -4 11 -6 11 -12 0z"/>
        <path d="M4077 1816 c-6 -16 2 -28 14 -20 12 7 11 34 0 34 -5 0 -11 -6 -14
        -14z"/>
        <path d="M4938 1749 c-20 -11 -24 -34 -8 -44 15 -9 40 14 40 36 0 21 -7 23
        -32 8z"/>
        <path d="M4875 1698 c4 -13 7 -38 6 -56 -1 -23 3 -32 11 -29 7 2 12 10 10 16
        -1 7 2 10 8 6 5 -3 10 -13 10 -21 0 -8 5 -12 10 -9 17 10 12 85 -5 85 -8 0
        -15 7 -15 15 0 9 -9 15 -21 15 -18 0 -20 -4 -14 -22z"/>
        <path d="M4765 1569 c-4 -6 -13 -8 -20 -5 -7 2 -15 -1 -18 -7 -7 -21 5 -87 17
        -89 6 0 25 -2 41 -4 75 -8 71 -5 53 -34 -10 -15 -10 -22 0 -32 18 -18 24 -5
        29 70 l4 69 -31 6 c-18 4 -30 13 -30 22 0 17 -35 21 -45 4z"/>
        <path d="M4570 1531 c0 -31 22 -82 34 -78 19 6 20 70 0 84 -24 18 -34 16 -34
        -6z"/>
        <path d="M4651 1454 c0 -11 3 -14 6 -6 3 7 2 16 -1 19 -3 4 -6 -2 -5 -13z"/>
        <path d="M4640 1421 c0 -6 5 -13 10 -16 6 -3 10 1 10 9 0 9 -4 16 -10 16 -5 0
        -10 -4 -10 -9z"/>
    </g>
</svg>